<svg width="4582" height="1316" viewBox="0 0 4582 1316" fill="none" xmlns="http://www.w3.org/2000/svg">
<rect x="75" y="139" width="1038" height="1038" rx="250" fill="white"/>
<path d="M814.623 768.204H1039.08C1034.58 812.196 1014.31 851.251 978.276 885.367C942.743 919.483 892.946 946.118 828.886 965.271C765.327 984.424 688.755 994 599.172 994C529.106 994 466.298 986.818 410.746 972.453C355.194 957.789 307.649 936.84 268.112 909.607C229.076 882.374 199.298 849.455 178.779 810.85C158.26 772.244 148 729.001 148 681.118V635.78C148 587.897 158.51 544.653 179.529 506.048C201.05 467.144 231.578 434.075 271.115 406.842C311.152 379.609 358.947 358.66 414.499 343.996C470.051 329.332 532.109 322 600.673 322C691.758 322 768.58 331.876 831.139 351.627C894.197 371.379 942.993 398.612 977.525 433.327C1012.56 468.041 1033.58 507.544 1040.58 551.836H815.374C812.871 525.5 804.113 503.205 789.099 484.95C774.085 466.395 751.314 452.48 720.785 443.202C690.757 433.626 650.72 428.838 600.673 428.838C563.138 428.838 530.357 433.027 502.331 441.407C474.305 449.786 450.783 462.505 431.765 479.563C412.747 496.621 398.484 518.168 388.975 544.204C379.967 569.941 375.463 600.167 375.463 634.882V681.118C375.463 714.935 379.717 744.712 388.225 770.449C396.732 795.886 409.745 817.434 427.261 835.09C445.278 852.448 468.299 865.615 496.326 874.593C524.852 883.272 559.134 887.611 599.172 887.611C646.216 887.611 685.002 883.122 715.53 874.144C746.059 865.166 769.331 851.849 785.346 834.192C801.861 816.536 811.62 794.54 814.623 768.204Z" fill="url(#paint0_linear_9_630)"/>
<path d="M730.624 646.569C730.624 694.778 679.689 738.615 610.248 738.615C540.808 738.615 489.873 694.778 489.873 646.569C489.873 598.36 540.808 554.523 610.248 554.523C679.689 554.523 730.624 598.36 730.624 646.569Z" stroke="#E80E45" stroke-width="25"/>
<path d="M659.247 646.569C659.247 663.763 640.268 682.456 610.248 682.456C580.228 682.456 561.25 663.763 561.25 646.569C561.25 629.376 580.228 610.683 610.248 610.683C640.268 610.683 659.247 629.376 659.247 646.569Z" stroke="#E80E45" stroke-width="25"/>
<path d="M1718.2 889C1683.4 889 1651.2 883.8 1621.6 873.4C1592 863 1566 848.2 1543.6 829C1521.6 809.4 1504.4 786.4 1492 760C1479.6 733.2 1473.4 703.6 1473.4 671.2C1473.4 639.6 1479.8 610.6 1492.6 584.2C1505.4 557.8 1522.8 534.8 1544.8 515.2C1566.8 495.6 1592.6 480.6 1622.2 470.2C1652.2 459.8 1684.4 454.6 1718.8 454.6C1743.2 454.6 1766.6 457.6 1789 463.6C1811.8 469.2 1832.8 477 1852 487C1871.6 496.6 1888.2 507.6 1901.8 520L1842.4 598C1832 588.8 1820.6 580.6 1808.2 573.4C1795.8 565.8 1781.8 559.8 1766.2 555.4C1751 551 1733.8 548.8 1714.6 548.8C1697 548.8 1680.2 551.6 1664.2 557.2C1648.2 562.4 1633.6 570.4 1620.4 581.2C1607.6 591.6 1597.4 604.6 1589.8 620.2C1582.2 635.4 1578.4 652.8 1578.4 672.4C1578.4 692 1582.4 709.6 1590.4 725.2C1598.4 740.4 1609.2 753.4 1622.8 764.2C1636.4 774.6 1652 782.6 1669.6 788.2C1687.6 793.4 1706.6 796 1726.6 796C1745.8 796 1763 793.4 1778.2 788.2C1793.8 782.6 1807.8 776 1820.2 768.4C1832.6 760.4 1843.4 752.6 1852.6 745L1901.2 823.6C1890 834 1874.8 844.2 1855.6 854.2C1836.8 864.2 1815.6 872.6 1792 879.4C1768.4 885.8 1743.8 889 1718.2 889ZM2254.43 889C2217.63 889 2184.03 883.6 2153.63 872.8C2123.63 861.6 2097.43 846.2 2075.03 826.6C2053.03 807 2035.83 784 2023.43 757.6C2011.43 731.2 2005.43 702.4 2005.43 671.2C2005.43 640 2011.43 611.2 2023.43 584.8C2035.83 558.4 2053.23 535.4 2075.63 515.8C2098.03 496.2 2124.23 481 2154.23 470.2C2184.23 459 2217.43 453.4 2253.83 453.4C2290.23 453.4 2323.43 458.8 2353.43 469.6C2383.83 480.4 2410.03 495.8 2432.03 515.8C2454.43 535.4 2471.63 558.4 2483.63 584.8C2496.03 611.2 2502.23 640 2502.23 671.2C2502.23 702.4 2496.03 731.2 2483.63 757.6C2471.63 784 2454.43 807.2 2432.03 827.2C2410.03 846.8 2383.83 862 2353.43 872.8C2323.43 883.6 2290.43 889 2254.43 889ZM2253.83 793C2275.03 793 2294.43 790 2312.03 784C2329.63 777.6 2344.83 769 2357.63 758.2C2370.83 747 2380.83 734 2387.63 719.2C2394.83 704.4 2398.43 688.4 2398.43 671.2C2398.43 654 2394.83 638 2387.63 623.2C2380.83 608.4 2370.83 595.6 2357.63 584.8C2344.83 573.6 2329.63 565 2312.03 559C2294.43 552.6 2275.03 549.4 2253.83 549.4C2233.03 549.4 2213.83 552.6 2196.23 559C2178.63 565 2163.23 573.4 2150.03 584.2C2136.83 595 2126.83 608 2120.03 623.2C2113.23 638 2109.83 654 2109.83 671.2C2109.83 688.4 2113.23 704.6 2120.03 719.8C2126.83 734.6 2136.83 747.4 2150.03 758.2C2163.23 769 2178.63 777.6 2196.23 784C2213.83 790 2233.03 793 2253.83 793ZM2864.39 889C2827.59 889 2793.99 883.6 2763.59 872.8C2733.59 861.6 2707.39 846.2 2684.99 826.6C2662.99 807 2645.79 784 2633.39 757.6C2621.39 731.2 2615.39 702.4 2615.39 671.2C2615.39 640 2621.39 611.2 2633.39 584.8C2645.79 558.4 2663.19 535.4 2685.59 515.8C2707.99 496.2 2734.19 481 2764.19 470.2C2794.19 459 2827.39 453.4 2863.79 453.4C2900.19 453.4 2933.39 458.8 2963.39 469.6C2993.79 480.4 3019.99 495.8 3041.99 515.8C3064.39 535.4 3081.59 558.4 3093.59 584.8C3105.99 611.2 3112.19 640 3112.19 671.2C3112.19 702.4 3105.99 731.2 3093.59 757.6C3081.59 784 3064.39 807.2 3041.99 827.2C3019.99 846.8 2993.79 862 2963.39 872.8C2933.39 883.6 2900.39 889 2864.39 889ZM2863.79 793C2884.99 793 2904.39 790 2921.99 784C2939.59 777.6 2954.79 769 2967.59 758.2C2980.79 747 2990.79 734 2997.59 719.2C3004.79 704.4 3008.39 688.4 3008.39 671.2C3008.39 654 3004.79 638 2997.59 623.2C2990.79 608.4 2980.79 595.6 2967.59 584.8C2954.79 573.6 2939.59 565 2921.99 559C2904.39 552.6 2884.99 549.4 2863.79 549.4C2842.99 549.4 2823.79 552.6 2806.19 559C2788.59 565 2773.19 573.4 2759.99 584.2C2746.79 595 2736.79 608 2729.99 623.2C2723.19 638 2719.79 654 2719.79 671.2C2719.79 688.4 2723.19 704.6 2729.99 719.8C2736.79 734.6 2746.79 747.4 2759.99 758.2C2773.19 769 2788.59 777.6 2806.19 784C2823.79 790 2842.99 793 2863.79 793ZM3263.15 883V463H3470.15C3494.95 463 3517.35 468.8 3537.35 480.4C3557.35 491.6 3573.35 506.8 3585.35 526C3597.35 545.2 3603.35 566.6 3603.35 590.2C3603.35 615.4 3597.15 637.8 3584.75 657.4C3572.75 676.6 3556.15 691.8 3534.95 703C3514.15 713.8 3490.75 719.2 3464.75 719.2H3309.95V883H3263.15ZM3567.35 883L3438.95 698.2L3485.75 683.2L3624.95 883H3567.35ZM3309.95 673.6H3462.35C3479.95 673.6 3495.55 670 3509.15 662.8C3523.15 655.6 3533.95 645.8 3541.55 633.4C3549.55 621 3553.55 607 3553.55 591.4C3553.55 575.4 3549.35 561.2 3540.95 548.8C3532.95 536.4 3521.75 526.6 3507.35 519.4C3493.35 512.2 3477.35 508.6 3459.35 508.6H3309.95V673.6ZM3727.74 883L3916.74 463H3973.74L4160.94 883H4108.74L3976.14 587.8C3972.14 577.4 3968.34 568 3964.74 559.6C3961.54 551.2 3958.34 543.4 3955.14 536.2C3951.94 529 3948.74 521.6 3945.54 514C3942.74 506 3939.74 497.2 3936.54 487.6L3950.34 487C3946.34 498.2 3942.74 508 3939.54 516.4C3936.34 524.4 3933.14 532.2 3929.94 539.8C3927.14 547 3923.94 554.6 3920.34 562.6C3916.74 570.6 3912.74 580 3908.34 590.8L3776.34 883H3727.74ZM3806.34 770.8L3824.94 725.2H4060.74L4073.34 770.8H3806.34Z" fill="white"/>
<defs>
<linearGradient id="paint0_linear_9_630" x1="594.292" y1="322" x2="594.292" y2="994" gradientUnits="userSpaceOnUse">
<stop stop-color="#FF700C"/>
<stop offset="1" stop-color="#E80F44"/>
</linearGradient>
</defs>
</svg>
